<svg width="14" height="11" viewBox="0 0 14 11" fill="none" xmlns="http://www.w3.org/2000/svg">
<path d="M13.4 2.8984V8.6C13.4 9.13043 13.1893 9.63914 12.8142 10.0142C12.4391 10.3893 11.9304 10.6 11.4 10.6H2.59998C2.06954 10.6 1.56083 10.3893 1.18576 10.0142C0.810689 9.63914 0.599976 9.13043 0.599976 8.6V2.8984L6.79678 6.5448C6.85834 6.58111 6.9285 6.60026 6.99998 6.60026C7.07145 6.60026 7.14161 6.58111 7.20318 6.5448L13.4 2.8984ZM11.4 0.200001C11.8921 0.199923 12.367 0.381286 12.7337 0.709393C13.1005 1.0375 13.3334 1.48931 13.388 1.9784L6.99998 5.736L0.611976 1.9784C0.666502 1.48931 0.899435 1.0375 1.26621 0.709393C1.63299 0.381286 2.10786 0.199923 2.59998 0.200001H11.4Z" fill="#0DA890"/>
</svg>
